<svg id="svg" version="1.1" xmlns="http://www.w3.org/2000/svg" xmlns:xlink="http://www.w3.org/1999/xlink" width="400" height="400" viewBox="0, 0, 400,400"><g id="svgg"><path id="path0" d="M173.732 47.718 C 159.065 54.990,147.066 61.029,147.069 61.139 C 147.075 61.386,202.277 89.158,202.708 89.131 C 203.233 89.097,254.146 61.817,254.146 61.569 C 254.146 61.441,242.053 55.297,227.273 47.917 L 200.400 34.497 173.732 47.718 M90.809 89.032 C 74.271 97.316,60.739 104.184,60.739 104.296 C 60.739 104.407,73.587 110.921,89.289 118.772 L 117.840 133.045 147.431 117.594 C 163.707 109.096,177.023 102.032,177.023 101.897 C 177.023 101.538,122.099 73.922,121.438 73.948 C 121.131 73.961,107.348 80.748,90.809 89.032 M253.546 87.865 C 239.481 95.298,227.972 101.541,227.972 101.739 C 227.972 102.164,285.178 131.069,286.019 131.069 C 286.660 131.069,339.238 104.617,339.252 104.287 C 339.266 103.962,280.318 74.324,279.685 74.338 C 279.375 74.345,267.612 80.432,253.546 87.865 M172.343 129.980 C 156.253 138.381,143.081 145.390,143.072 145.555 C 143.064 145.720,155.916 152.283,171.633 160.140 L 200.209 174.426 230.342 159.241 C 246.916 150.889,260.355 143.933,260.208 143.783 C 259.639 143.204,202.767 114.686,202.199 114.696 C 201.869 114.701,188.434 121.579,172.343 129.980 M326.797 136.791 L 299.349 150.450 299.325 186.942 C 299.305 216.881,299.395 223.412,299.825 223.306 C 300.114 223.235,312.701 216.899,327.797 209.226 L 355.245 195.275 355.245 159.176 C 355.245 130.548,355.141 123.083,354.745 123.105 C 354.471 123.120,341.894 129.279,326.797 136.791 M244.056 177.954 L 211.788 193.995 211.788 230.464 C 211.788 250.522,211.856 266.933,211.940 266.933 C 212.023 266.933,226.797 259.617,244.771 250.674 L 277.451 234.415 277.187 216.808 C 277.043 207.124,276.924 190.794,276.924 180.519 C 276.923 170.245,276.788 161.855,276.623 161.875 C 276.459 161.896,261.803 169.131,244.056 177.954 M326.973 234.600 L 299.301 248.599 299.301 285.339 C 299.301 305.545,299.390 322.078,299.500 322.078 C 299.609 322.078,312.197 315.830,327.472 308.193 L 355.245 294.308 355.245 257.444 C 355.245 237.168,355.110 220.584,354.945 220.590 C 354.780 220.595,342.193 226.900,326.973 234.600 M244.256 276.045 L 211.788 292.305 211.788 328.970 C 211.788 353.206,211.924 365.634,212.189 365.634 C 212.409 365.634,227.154 358.351,244.956 349.450 L 277.323 333.266 277.323 296.503 C 277.323 276.283,277.188 259.750,277.023 259.763 C 276.858 259.775,262.113 267.102,244.256 276.045 " stroke="none" fill="#4caccc" fill-rule="evenodd"></path><path id="path1" d="M45.254 204.843 L 45.355 289.007 64.702 299.349 C 75.343 305.037,84.108 309.690,84.180 309.690 C 84.253 309.690,84.358 290.135,84.414 266.234 L 84.515 222.777 112.040 275.724 C 144.645 338.442,143.680 336.813,151.049 341.589 C 157.259 345.614,188.824 364.835,189.224 364.835 C 189.327 364.835,189.406 326.399,189.400 279.421 L 189.389 194.006 167.424 182.917 L 145.458 171.828 145.356 218.973 L 145.255 266.119 128.295 230.063 C 89.040 146.609,87.447 143.278,86.171 141.974 C 85.425 141.212,80.779 138.560,74.725 135.441 C 61.891 128.828,45.696 120.679,45.388 120.679 C 45.259 120.679,45.198 158.553,45.254 204.843 " stroke="none" fill="#4c74cc" fill-rule="evenodd"></path><path id="path2" d="" stroke="none" fill="#4cb0cc" fill-rule="evenodd"></path><path id="path3" d="" stroke="none" fill="#4cb0cc" fill-rule="evenodd"></path><path id="path4" d="" stroke="none" fill="#4cb0cc" fill-rule="evenodd"></path></g></svg>